<?xml version="1.0" encoding="utf-8"?>
<!-- Generator: Adobe Illustrator 19.1.0, SVG Export Plug-In . SVG Version: 6.00 Build 0)  -->
<svg version="1.1" id="Layer_1" xmlns="http://www.w3.org/2000/svg" xmlns:xlink="http://www.w3.org/1999/xlink" x="0px" y="0px"
	 viewBox="0 0 96.4 96.8" style="enable-background:new 0 0 96.4 96.8;" xml:space="preserve">
<style type="text/css">
	.st0{fill:#FFFFFF;}
	.st1{fill:#7D519E;}
</style>
<path class="st0" d="M67.7,10.3c-14-2.7-28.2-2.7-42.2,0c-6.1,1.4-13.8,8.8-15.3,14.8c-2.5,11.5-2.5,23.2,0,34.8
	c1.5,6,9.2,13.4,15.3,14.8l0,0c0.3,0.1,0.5,0.3,0.5,0.6v16.9c0,0.8,1,1.3,1.6,0.7l8-8.2c0,0,6.4-6.6,7.5-7.8
	c0.1-0.1,0.3-0.2,0.4-0.2c8.1,0.2,16.1-0.4,24.2-2c6.1-1.4,13.8-8.8,15.3-14.7c2.5-11.5,2.5-23.2,0-34.8
	C81.6,19.1,73.9,11.7,67.7,10.3L67.7,10.3z"/>
<g>
	<g>
		<path class="st1" d="M91.2,23.2l0-0.1c-2.3-9.1-12.4-19-21.7-21l-0.1,0C54.3-0.8,39-0.8,23.9,2.1l-0.1,0c-9.3,2-19.5,11.9-21.7,21
			l0,0.1C-0.7,36-0.7,49,2.1,61.7l0,0.1C4.3,70.6,13.7,80,22.6,82.5v10.2c0,3.7,4.5,5.5,7,2.8L40,84.8c2.2,0.1,4.5,0.2,6.7,0.2
			c7.6,0,15.2-0.7,22.7-2.2l0.1,0c9.3-2,19.5-11.9,21.7-21l0-0.1C94,49,94,36,91.2,23.2z M83.1,59.9c-1.5,6-9.2,13.4-15.3,14.7
			c-8,1.5-16.1,2.2-24.2,2c-0.2,0-0.3,0.1-0.4,0.2c-1.1,1.2-7.5,7.8-7.5,7.8l-8,8.2C27.1,93.4,26,93,26,92.1V75.2
			c0-0.3-0.2-0.5-0.5-0.6l0,0c-6.1-1.4-13.8-8.8-15.3-14.8c-2.5-11.5-2.5-23.2,0-34.8c1.5-6,9.2-13.4,15.3-14.8
			c14-2.7,28.2-2.7,42.2,0c6.1,1.4,13.8,8.8,15.3,14.8C85.6,36.6,85.6,48.3,83.1,59.9z M57.8,39.6c0.1-0.3,0-0.7,0-1.1
			c-0.4-5.2-3.6-7.5-8-7.8c-0.7,0-1.3,0.5-1.4,1.1c-0.1,0.7,0.3,1.3,1,1.5c0.7,0.2,1.4,0.1,2.1,0.3c0.5,0.2,1.1,0.4,1.5,0.7
			c1,0.7,1.6,1.8,1.9,3c0.1,0.6,0.2,1.2,0.3,1.8c0.1,0.8,0.6,1.3,1.4,1.4c-0.2,0-0.4,0,0.1,0c0.1,0,0.1,0,0.1,0
			C57.3,40.5,57.7,40.2,57.8,39.6z M63.1,53.9c-1.4-1-2.7-1.9-4.2-2.8c-1.4-0.9-3.1-0.9-4.4,0.2c-1.3,1.1-2,3.2-3.9,3.4
			c-1.1,0.1-2.1-0.4-3.1-0.8c-6.2-2.6-10-7.4-12.2-13.6c-0.3-0.8-0.3-1.7,0.2-2.4c0.2-0.4,0.6-0.7,0.9-1c0.4-0.3,0.8-0.7,1.3-1
			c1.8-1.2,2.1-3.5,1.1-5.3c-1.6-3-3.7-5.7-5.9-8.2c-1-1.2-2.4-1.6-3.8-0.9c-1.8,0.9-3.4,2-4.7,3.6c-1.4,1.6-2.7,3.9-1.8,6
			c1,2.4,1.9,4.7,3,7c2.4,4.8,5.2,9.4,8.7,13.5c6.3,7.1,14.2,11.8,22.9,15.4c0.8,0.3,1.7,0.5,2.7,0.8c0.8-0.3,1.7-0.4,2.4-0.8
			c2.6-1.4,4.4-3.6,5.6-6.2c0.7-1.4,0.3-2.8-0.9-3.9C65.8,55.8,64.5,54.9,63.1,53.9z M46.7,18.5C47.3,18.5,57.5,18.8,46.7,18.5
			c-0.2,0-0.5,0-0.7,0c-0.8,0-1.5,0.7-1.4,1.6c0.2,1,1.2,1.1,2,1.1c1.3,0.1,2.6,0.2,3.8,0.4c8.4,1.5,15.1,8.5,16.2,16.9
			c0.2,1.6,0.3,3.2,0.4,4.8c0.1,0.8,0.5,1.6,1.4,1.6c0.9,0,1.3-0.8,1.3-1.6c-0.1-1.9-0.3-3.9-0.6-5.8C67.2,26.3,58,18.8,46.7,18.5z
			 M61.2,40.6c0,0.4,0,0.8,0.1,1.1c0.4,1.1,2.1,1,2.4-0.1c0.1-0.3,0.1-0.6,0.1-0.8c0-0.8-0.1-1.4-0.1-2c0-0.2-0.1-0.5-0.1-0.7
			c-0.8-5.3-3.5-9.2-8.1-11.7c-2.3-1.2-4.8-1.8-7.4-1.9c-0.8,0-1.3,0.5-1.4,1.2c0,0.8,0.4,1.3,1.2,1.4c0.6,0.1,1.3,0.2,1.9,0.3
			c1.5,0.2,2.9,0.7,4.3,1.3c2.2,1.1,4.1,2.9,5.4,5C60.7,35.8,61.2,38.2,61.2,40.6z"/>
	</g>
</g>
</svg>
