<?xml version="1.0" encoding="utf-8"?>
<!-- Generator: Adobe Illustrator 19.1.0, SVG Export Plug-In . SVG Version: 6.00 Build 0)  -->
<svg version="1.1" id="Layer_1" xmlns="http://www.w3.org/2000/svg" xmlns:xlink="http://www.w3.org/1999/xlink" x="0px" y="0px"
	 viewBox="0 0 96.4 96.8" style="enable-background:new 0 0 96.4 96.8;" xml:space="preserve">
<style type="text/css">
	.st0{fill-rule:evenodd;clip-rule:evenodd;fill:#FFFFFF;}
	.st1{fill-rule:evenodd;clip-rule:evenodd;fill:#F41825;}
</style>
<path class="st0" d="M78.7,30.7c0-7.9-6.3-14.3-14.2-14.3H33.4v15.7h-2.8V16.4c-0.5,0-1,0.1-1.4,0.1v15.5h-2.8V17.3
	c-0.5,0.2-1,0.4-1.4,0.6v14.1h-2.8V19.9c-3,2.6-5,6.5-5,10.8v6.4h19.4c2.9-2.8,6.7-4.5,11-4.5c4.3,0,8.2,1.7,11,4.5h20.2V30.7z"/>
<ellipse class="st0" cx="47.6" cy="48.5" rx="12" ry="12.1"/>
<path class="st0" d="M78.7,39.2H60.4c1.9,2.7,3.1,5.9,3.1,9.4c0,8.9-7.1,16-15.9,16c-8.8,0-15.9-7.2-15.9-16c0-3.5,1.1-6.8,3.1-9.4
	H17.1V67c0,7.9,6.3,14.3,14.2,14.3h33.3c7.8,0,14.2-6.4,14.2-14.3V39.2z"/>
<ellipse class="st0" cx="47.6" cy="48.5" rx="9.2" ry="9.3"/>
<path class="st1" d="M88.7,96.8H7.9c-4.3,0-7.8-3.5-7.8-7.8V7.8C0.1,3.5,3.6,0,7.9,0h80.9c4.3,0,7.8,3.5,7.8,7.8V89
	C96.5,93.3,93,96.8,88.7,96.8z M78.7,30.7c0-7.9-6.3-14.3-14.2-14.3H33.4v15.7h-2.8V16.4c-0.5,0-1,0.1-1.4,0.1v15.5h-2.8V17.3
	c-0.5,0.2-1,0.4-1.4,0.6v14.1h-2.8V19.9c-3,2.6-5,6.5-5,10.8v6.4h19.4c2.9-2.8,6.7-4.5,11-4.5c4.3,0,8.2,1.7,11,4.5h20.2V30.7z
	 M35.5,48.5c0,6.7,5.4,12.1,12,12.1c6.7,0,12-5.4,12-12.1c0-6.7-5.4-12.1-12-12.1C40.9,36.3,35.5,41.8,35.5,48.5z M78.7,39.2H60.4
	c1.9,2.7,3.1,5.9,3.1,9.4c0,8.9-7.1,16-15.9,16c-8.8,0-15.9-7.2-15.9-16c0-3.5,1.1-6.8,3.1-9.4H17.1V67c0,7.9,6.3,14.3,14.2,14.3
	h33.3c7.8,0,14.2-6.4,14.2-14.3V39.2z M47.6,39.2c5.1,0,9.2,4.1,9.2,9.3c0,5.1-4.1,9.3-9.2,9.3c-5.1,0-9.2-4.1-9.2-9.3
	C38.4,43.4,42.5,39.2,47.6,39.2z M64.6,21.4H71c1.2,0,2.1,1,2.1,2.1v7.1c0,1.2-1,2.1-2.1,2.1h-6.4c-1.2,0-2.1-1-2.1-2.1v-7.1
	C62.4,22.3,63.4,21.4,64.6,21.4z"/>
</svg>
