<?xml version="1.0" encoding="utf-8"?>
<!-- Generator: Adobe Illustrator 19.1.0, SVG Export Plug-In . SVG Version: 6.00 Build 0)  -->
<svg version="1.1" id="Layer_1" xmlns="http://www.w3.org/2000/svg" xmlns:xlink="http://www.w3.org/1999/xlink" x="0px" y="0px"
	 viewBox="0 0 96.4 96.8" style="enable-background:new 0 0 96.4 96.8;" xml:space="preserve">
<style type="text/css">
	.st0{fill-rule:evenodd;clip-rule:evenodd;fill:#DA4835;}
	.st1{fill-rule:evenodd;clip-rule:evenodd;fill:#FFFFFF;}
</style>
<g>
	<g>
		<path class="st0" d="M35.5,56.3C34.4,56.4,32,56.7,31,57c-3.5,1.2-6.8,3.6-8.1,6.8c-1.2,2.9-0.3,6.4,1,8.3
			c2.4,3.5,6.6,5.8,12.6,5.3c3.1-0.3,5.2-0.3,7.5-1.3c4-1.8,8.4-7.7,5.1-13.3C46.6,58.6,42.2,56.2,35.5,56.3z M40.2,41.9
			c4.3-1.6,5.8-7.3,4.2-12.8c-2.2-7.2-6.6-11.4-11.4-10.4c-1,0.2-4.7,0.8-6.2,6.4c-0.3,1.3-0.4,3.5-0.1,4.9c0.3,1.2,0.1,2.2,0.5,3.3
			c1.3,3.5,3.3,6.1,6.4,7.8C35.1,41.9,37.9,42.7,40.2,41.9z M88.6,0H7.8C3.5,0,0,3.5,0,7.8V89c0,4.3,3.5,7.8,7.8,7.8h80.9
			c4.3,0,7.8-3.5,7.8-7.8V7.8C96.4,3.5,92.9,0,88.6,0z M56.2,70.3c-0.5,1.4-1.3,2.7-2.1,3.8c-0.3,0.3-0.7,0.6-1,0.9
			c-1.3,1.8-3.5,3.2-5.6,4.1c-10.9,4.7-28.8,1.7-32-7.9c-1.1-3.3,0.1-7.4,1.4-9.5c3.7-5.6,10.9-7.9,20.2-7.9v-0.3
			c-1.1-0.7-2.7-3.6-2.2-5.8c0.2-0.8,0.5-1.6,0.7-2.5c-0.1-0.1-0.1-0.1-0.3-0.3c-7,0-12.3-3.2-14.5-8.4c-1.2-2.8-1.8-7.1-0.7-10.5
			c0.5-1.6,1.4-3.2,2.4-4.5c2.3-3.1,6.8-5.2,10.4-5.8c1.1-0.2,4.8-0.4,5.9-0.4h17.8c0,0-0.3,0.2-0.3,0.3c-0.8,0.9-2.3,2.5-3.4,3.7
			c-0.2,0.2-0.4,0.4-0.7,0.5c-0.4,0.1-0.8,0.1-1.3,0.1c-1.2,0-2.5,0-3.4,0v0.1c3.2,2,6.1,7.8,4.6,14c-0.5,2.1-1.8,3.9-3.2,5.2
			c-1.6,1.6-3.7,2.7-5,4.6c-0.4,0.6-0.9,1.8-0.7,2.9c0.7,2.9,3.4,4.4,5.5,5.9C52.9,56,59.1,62.2,56.2,70.3z M81.7,29.8h-8.8v8.9
			h-4.5v-8.9h-8.8v-4.6h8.6v-8.7h4.5v8.8h8.9V29.8z"/>
	</g>
</g>
<path class="st1" d="M38.6,15.5c1.1,0,11.9,0,17.8,0c0,0-0.3,0.2-0.3,0.3c-0.8,0.9-2.3,2.5-3.4,3.7c-0.2,0.2-0.4,0.4-0.7,0.5
	c-0.4,0.1-0.8,0.1-1.3,0.1c-1.2,0-2.5,0-3.4,0c0,0,0,0.1,0,0.1c3.2,2,6.1,7.8,4.6,14c-0.5,2.1-1.8,3.9-3.2,5.2
	c-1.6,1.6-3.7,2.7-5,4.6c-0.4,0.6-0.9,1.8-0.7,2.9c0.7,2.9,3.4,4.4,5.5,5.9c4.3,3.1,10.4,9.4,7.5,17.5c-0.5,1.4-1.3,2.7-2.1,3.8
	c-0.3,0.3-0.7,0.6-1,0.9c-1.3,1.8-3.5,3.2-5.6,4.1c-10.9,4.7-28.8,1.7-32-7.9c-1.1-3.3,0.1-7.4,1.4-9.5c3.7-5.6,10.9-7.9,20.2-7.9
	c0-0.1,0-0.2,0-0.3c-1.1-0.7-2.7-3.6-2.2-5.8c0.2-0.8,0.5-1.6,0.7-2.5c-0.1-0.1-0.1-0.1-0.3-0.3c-7,0-12.3-3.2-14.5-8.4
	c-1.2-2.8-1.8-7.1-0.7-10.5c0.5-1.6,1.4-3.2,2.4-4.5c2.3-3.1,6.8-5.2,10.4-5.8C33.8,15.7,37.5,15.5,38.6,15.5z M72.8,25.3h8.9v4.5
	h-8.8v8.9h-4.5v-8.9h-8.8v-4.6h8.6v-8.7h4.5V25.3z M33,18.7c-1,0.2-4.7,0.8-6.2,6.4c-0.3,1.3-0.4,3.5-0.1,4.9
	c0.3,1.2,0.1,2.2,0.5,3.3c1.3,3.5,3.3,6.1,6.4,7.8c1.5,0.8,4.3,1.6,6.6,0.8c4.3-1.6,5.8-7.3,4.2-12.8C42.2,21.9,37.7,17.7,33,18.7z
	 M35.5,56.3C34.4,56.4,32,56.7,31,57c-3.5,1.2-6.8,3.6-8.1,6.8c-1.2,2.9-0.3,6.4,1,8.3c2.4,3.5,6.6,5.8,12.6,5.3
	c3.1-0.3,5.2-0.3,7.5-1.3c4-1.8,8.4-7.7,5.1-13.3C46.6,58.6,42.2,56.2,35.5,56.3z"/>
</svg>
