<?xml version="1.0" encoding="utf-8"?>
<!-- Generator: Adobe Illustrator 19.1.0, SVG Export Plug-In . SVG Version: 6.00 Build 0)  -->
<svg version="1.1" id="Layer_1" xmlns="http://www.w3.org/2000/svg" xmlns:xlink="http://www.w3.org/1999/xlink" x="0px" y="0px"
	 viewBox="0 0 97 97" style="enable-background:new 0 0 97 97;" xml:space="preserve">
<style type="text/css">
	.st0{fill:#FFFFFF;}
	.st1{fill:#007AB9;}
</style>
<g>
	<ellipse class="st0" cx="23.1" cy="24.4" rx="8" ry="8"/>
	<rect x="16" y="37" class="st0" width="14" height="44"/>
	<path class="st0" d="M74.1,38.4c-2.9-1.8-5.7-2.3-10-2.3c-3.8,0-7.5,1.6-10,4.9c-0.5,0.6-1.5,2-1.6,2c0,0-0.5,0.1-0.5,0.1V37H38v44
		h14c0,0,0-10.1,0-20.5c0-2.4,0.2-5.8,0.9-7.7c1.7-4.9,5.9-5.3,6.9-5.3c1,0,4.1-0.1,6.6,4c1.4,2.5,1.6,5.8,1.6,9.8
		c0,6.7,0,19.7,0,19.7h14c0,0,0-13.6,0-20.2c0-4.1,0.2-8.6-0.7-11.9C80,44.2,77.8,40.8,74.1,38.4z"/>
</g>
<path class="st1" d="M88.9,0H8.1C3.8,0,0,3.6,0,7.9v81.2C0,93.4,3.8,97,8.1,97h80.9c4.3,0,8.1-3.6,8.1-7.9V7.9C97,3.6,93.2,0,88.9,0
	z M30,81H16V37h14V81z M23.1,32.5c-4.4,0-8-3.6-8-8c0-4.4,3.6-8,8-8s8,3.6,8,8C31.1,28.9,27.5,32.5,23.1,32.5z M82,60.8
	c0,6.6,0,20.2,0,20.2H68c0,0,0-12.9,0-19.7c0-3.9-0.1-7.3-1.6-9.8c-2.4-4.2-5.4-4-6.4-4c-1,0-5.4,0.4-7.1,5.3
	c-0.7,1.8-0.9,5.2-0.9,7.7C52,70.9,52,81,52,81H38V37h14v6.2c0,0,0.4,0,0.5-0.1c0,0,1-1.4,1.5-2c2.5-3.3,6.2-4.9,10-4.9
	c4.4,0,7.2,0.5,10.1,2.3c3.7,2.3,5.9,5.7,7.2,10.5C82.2,52.2,82,56.7,82,60.8z"/>
</svg>
