<?xml version="1.0" encoding="utf-8"?>
<!-- Generator: Adobe Illustrator 19.1.0, SVG Export Plug-In . SVG Version: 6.00 Build 0)  -->
<svg version="1.1" id="Layer_1" xmlns="http://www.w3.org/2000/svg" xmlns:xlink="http://www.w3.org/1999/xlink" x="0px" y="0px"
	 viewBox="0 0 97 97" style="enable-background:new 0 0 97 97;" xml:space="preserve">
<style type="text/css">
	.st0{fill:#FFFFFF;}
	.st1{fill:#3B5998;}
</style>
<path class="st0" d="M79,59.5c0.5,0,0.6,0,0.7-0.2c0.2-1.5,1.7-13.2,1.8-14.2c0,0-0.4,0-0.4,0s0-0.2,0-0.2c-1,0-14.3,0.1-13.6,0.1
	c-0.2,0-0.5,0-0.6-0.5c0-4.6-0.6-11.5,1.4-14.2c0.5-0.7,1.9-1.4,2.7-1.6c0.8-0.2,3.7-0.3,8-0.3c1,0,2.1,0.2,3.1-0.1
	c0-3.1,0-6.2,0-9.3c0-0.8,0.3-3.1,0-3.6c-0.5-0.4-1.3-0.1-2-0.3c-2.7-0.2-5.1-0.2-6.9-0.3c-5.8-0.2-9.7,1.1-9.9,1.2
	c-4.5,1.9-7.3,4.8-9.4,9.1c-1,2.1-1.5,4.9-1.5,7.2c-0.1,3.4,0,9.8,0,11.9c0,0.3,0,0.9-0.1,0.9c-0.2,0-8.4,0-12.7,0
	c0,0-0.2-0.1-0.2,0.1c-0.3,2.1,0,12.2,0.1,13.9c0.1,0.1,0,0,0.1,0c2.9,0,5.8,0,8.7,0c1.2,0,2.9,0.1,3.9,0.5C52,72,52,84,52,97h15
	c0-13,0-25.1,0-37.6C69,59.4,78.4,59.5,79,59.5z"/>
<path class="st1" d="M97,89.1V7.9C97,3.6,93.4,0,89.1,0H8.3C4,0,0,3.6,0,7.9v81.2C0,93.4,4,97,8.3,97H52c0-13,0-25,0-37.5
	c-1-0.3-2.6-0.5-3.9-0.5c-2.9,0-5.8,0-8.7,0c-0.1,0,0,0.1-0.1,0c-0.1-1.7-0.4-11.9-0.1-14c0-0.2,0.2,0,0.2,0c4.2,0,12.5,0,12.7,0
	c0,0,0.1-0.5,0.1-0.9c0.1-2.2-0.1-8.5,0-11.9c0.1-2.3,0.6-5.1,1.5-7.2c2.1-4.3,4.9-7.3,9.4-9.1c0.2-0.1,4.2-1.3,9.9-1.2
	c1.9,0.1,4.2,0.1,7,0.3c0.7,0.2,1.5-0.1,2,0.3c0.3,0.5,0,2.8,0,3.6c0,3.1,0,6.2,0,9.3c-1,0.3-2.1,0.1-3.1,0.1c-4.2,0-7.2,0.1-8,0.3
	c-0.8,0.2-2.2,0.9-2.7,1.6c-2,2.7-1.4,9.5-1.3,14.2c0.1,0.5,0.3,0.5,0.5,0.5c-0.7,0,12.6-0.1,13.6-0.1c0,0,0,0.2,0,0.2s0.4,0,0.4,0
	c-0.1,1-1.7,12.8-1.8,14.2c0,0.3-0.2,0.2-0.7,0.3c-0.5,0-10-0.1-12-0.1C67,71.9,67,84,67,97h22.1C93.4,97,97,93.4,97,89.1z"/>
</svg>
