<?xml version="1.0" encoding="utf-8"?>
<!-- Generator: Adobe Illustrator 19.1.0, SVG Export Plug-In . SVG Version: 6.00 Build 0)  -->
<svg version="1.1" id="Layer_1" xmlns="http://www.w3.org/2000/svg" xmlns:xlink="http://www.w3.org/1999/xlink" x="0px" y="0px"
	 viewBox="0 0 96.4 96.8" style="enable-background:new 0 0 96.4 96.8;" xml:space="preserve">
<style type="text/css">
	.st0{fill-rule:evenodd;clip-rule:evenodd;fill:#FFFFFF;}
	.st1{fill-rule:evenodd;clip-rule:evenodd;fill:#189D0E;}
</style>
<path class="st0" d="M49.1,7.5c-22,0-39.8,17.8-39.8,39.7c0,8.7,2.8,16.7,7.6,23.3l-5,14.7l15.3-4.9c6.3,4.1,13.8,6.6,21.9,6.6
	c22,0,39.8-17.8,39.8-39.7C88.9,25.3,71,7.5,49.1,7.5L49.1,7.5z"/>
<path class="st1" d="M96.5,47.2c0,26.1-21.2,47.2-47.4,47.2c-8.3,0-16.1-2.1-22.9-5.9L0,96.9l8.5-25.3c-4.3-7.1-6.8-15.5-6.8-24.4
	C1.7,21.1,22.9,0,49.1,0C75.2,0,96.5,21.1,96.5,47.2L96.5,47.2z M49.1,7.5c-22,0-39.8,17.8-39.8,39.7c0,8.7,2.8,16.7,7.6,23.3
	l-5,14.7l15.3-4.9c6.3,4.1,13.8,6.6,21.9,6.6c22,0,39.8-17.8,39.8-39.7C88.9,25.3,71,7.5,49.1,7.5L49.1,7.5z M73,58
	c-0.3-0.5-1.1-0.8-2.2-1.4c-1.2-0.6-6.9-3.4-7.9-3.8c-1.1-0.4-1.8-0.6-2.6,0.6c-0.8,1.2-3,3.8-3.7,4.5c-0.7,0.8-1.4,0.9-2.5,0.3
	c-1.2-0.6-4.9-1.8-9.3-5.7c-3.4-3.1-5.8-6.9-6.5-8c-0.7-1.2-0.1-1.8,0.5-2.4c0.5-0.5,1.2-1.4,1.7-2c0.6-0.7,0.8-1.2,1.2-1.9
	c0.4-0.8,0.2-1.4-0.1-2c-0.3-0.6-2.6-6.3-3.6-8.6c-1-2.3-1.9-1.9-2.6-1.9c-0.7,0-1.5-0.1-2.2-0.1c-0.8,0-2,0.3-3.1,1.4
	C29,28.2,26,31,26,36.7c0,5.7,4.2,11.2,4.7,12c0.6,0.8,8,12.8,19.8,17.5c11.8,4.6,11.8,3.1,13.9,2.9c2.1-0.2,6.9-2.8,7.8-5.5
	C73.3,60.8,73.3,58.5,73,58L73,58z M73,58"/>
</svg>
