<?xml version="1.0" encoding="utf-8"?>
<!-- Generator: Adobe Illustrator 19.1.0, SVG Export Plug-In . SVG Version: 6.00 Build 0)  -->
<svg version="1.1" id="Layer_1" xmlns="http://www.w3.org/2000/svg" xmlns:xlink="http://www.w3.org/1999/xlink" x="0px" y="0px"
	 viewBox="0 0 97 97" style="enable-background:new 0 0 97 97;" xml:space="preserve">
<style type="text/css">
	.st0{fill-rule:evenodd;clip-rule:evenodd;fill:#28A9E0;}
	.st1{fill-rule:evenodd;clip-rule:evenodd;fill:#FFFFFF;}
</style>
<g>
	<g>
		<path class="st0" d="M88.9,0.1H8.1c-4.3,0-7.8,3.5-7.8,7.8v81.2c0,4.3,3.5,7.8,7.8,7.8h80.9c4.3,0,7.8-3.5,7.8-7.8V7.9
			C96.7,3.6,93.2,0.1,88.9,0.1z M75.2,34.9c0,3.5,0.3,9.5-3.9,18.8C66,65.5,54.7,74.4,40.6,75.5c-12.3,0.9-20.3-2.7-25.2-5.9
			c0.9,0.1,11.1,1.6,20.4-5.8c-3.9,0.2-10.3-2.1-12.9-9.4c1.7,0.3,4.1,0.5,6-0.3c-5.7-1.6-11.1-6.3-10.8-13.6
			c1.7,0.8,2.9,1.6,6.1,1.6c-2.7-2.2-5.5-4.5-6-10.5c-0.2-2.2,0.9-6.5,1.8-7.8c1.4,1.8,2.5,2.7,3.7,3.8c5.3,5.2,14.2,10.5,24.6,10.5
			c-2.1-12.2,8.1-16.6,12-16.8c5.4-0.3,8.3,1.5,11.4,4.3c3.3-0.5,6.7-2.2,8.5-3.2c-0.2,1.2-2.6,5.7-5.8,7.5c2.6-0.3,5.3-1,7.8-2.1
			C80.3,30.1,78.6,32.6,75.2,34.9z"/>
	</g>
</g>
<path class="st1" d="M82.2,27.8c-2.5,1.2-5.3,1.8-7.8,2.1c3.2-1.7,5.6-6.3,5.8-7.5c-1.8,1.1-5.2,2.7-8.5,3.2
	c-3.1-2.8-6-4.6-11.4-4.3c-3.9,0.2-14.1,4.6-12,16.8c-10.3,0-19.2-5.3-24.6-10.5c-1.2-1.2-2.3-2-3.7-3.8c-0.9,1.3-2,5.6-1.8,7.8
	c0.6,6,3.4,8.3,6,10.5c-3.2,0-4.4-0.8-6.1-1.6c-0.4,7.3,5.1,12,10.8,13.6c-1.9,0.8-4.3,0.5-6,0.3c2.6,7.3,9,9.5,12.9,9.4
	c-9.2,7.4-19.4,5.8-20.4,5.8c4.9,3.2,12.8,6.8,25.2,5.9c14.1-1.1,25.4-10,30.7-21.8c4.2-9.3,3.9-15.4,3.9-18.8
	C78.6,32.6,80.3,30.1,82.2,27.8z"/>
</svg>
