<?xml version="1.0" encoding="utf-8"?>
<!-- Generator: Adobe Illustrator 19.1.0, SVG Export Plug-In . SVG Version: 6.00 Build 0)  -->
<svg version="1.1" id="Layer_1" xmlns="http://www.w3.org/2000/svg" xmlns:xlink="http://www.w3.org/1999/xlink" x="0px" y="0px"
	 viewBox="0 0 437.4 296.6" style="enable-background:new 0 0 437.4 296.6;" xml:space="preserve">
<style type="text/css">
	.st0{fill-rule:evenodd;clip-rule:evenodd;fill:none;}
	.st1{fill:#F01A24;}
	.st2{fill-rule:evenodd;clip-rule:evenodd;fill:#231F1C;}
	.st3{fill:#FFFFFF;}
	.st4{fill:#231F1C;}
</style>
<rect x="0.4" y="-0.5" class="st0" width="437" height="297"/>
<g>
	<g>
		<polygon class="st1" points="365,123.1 418.7,56.9 389.5,56.9 335.9,123.1 389.5,189 419,189 		"/>
	</g>
</g>
<polygon class="st2" points="336.4,57.5 336.4,18.5 21.4,18.5 21.4,227.5 336.4,227.5 336.4,188.5 309.4,188.5 309.4,57.5 "/>
<path class="st3" d="M164.9,56.9h-27.5v49.7H86.1V56.9H58.7V189h27.5v-57h51.3v57h27.5V56.9z"/>
<path class="st4" d="M36,272.9l-0.6,1.2c-1.2,2.5-2.9,4.8-5.4,4.8c-2.2,0-3.4-0.5-4.1-0.9v4c1,0.4,2.9,0.9,4.5,0.9
	c3.6,0,6.6-2,9.7-8l14.2-28H49l-10.4,21.4L27.9,247h-5.3L36,272.9z"/>
<path class="st4" d="M112.5,247l-7.3,0l-16.4,15.5l0.1-15.5H84v35.2h4.8v-14.9l16.8,15h7.6l-19.1-18.4L112.5,247z"/>
<path class="st4" d="M143.9,247v35.2h4.8v-14.4h6.6c7.1,0,12.4-2.7,12.4-10.6c0-7.3-5.2-10.1-12.1-10.1H143.9z M148.7,251h5.3
	c4.8,0,8.9,0.8,8.9,6.4c0,5.2-3.6,6.4-8.2,6.4h-6V251z"/>
<path class="st4" d="M213.8,247h-5.4l-14.3,35.2h5.1l4.1-10.8h15.3l4,10.8h5.4L213.8,247z M217.2,267.7h-12.5l6.3-16.2L217.2,267.7z
	"/>
<path class="st4" d="M260.3,282.1h6l17.9-29.9h0.1v29.9h4.8V247h-6.1l-17.8,29.8h-0.1V247h-4.8V282.1z"/>
<path class="st4" d="M352.8,247H348v14.7h-19.2V247H324v35.2h4.8v-16.4H348v16.4h4.8V247z"/>
<path class="st4" d="M402.3,247h-5.4l-14.3,35.2h5.1l4.1-10.8h15.3l4,10.8h5.4L402.3,247z M405.7,267.7h-12.5l6.3-16.2L405.7,267.7z
	"/>
<path class="st3" d="M218.4,104.4V80.8h57V56.9h-83.1V189h50.3c25.9,0,44-13.4,44-42.5c0-28.8-18.5-42.1-42.6-42.1H218.4z
	 M260.9,146.1c0,14.1-7.8,19.1-20.4,19.1h-22.1v-38h22C252.1,127.2,260.9,132.2,260.9,146.1z"/>
</svg>
